STARTFONT 2.1
FONT serif10.bits
SIZE 12 75 75
FONTBOUNDINGBOX 8 13 0 0
STARTPROPERTIES 3
FONT_DESCENT 3
FONT_ASCENT 10
COPYRIGHT "Share and enjoy."
ENDPROPERTIES
CHARS 125
STARTCHAR C002
ENCODING 2
SWIDTH 666 0
DWIDTH 8 0
BBX 8 13 0 -3
BITMAP
0000
0800
0800
0000
0800
0800
1000
2400
2400
1800
0000
0000
0000
ENDCHAR
STARTCHAR C003
ENCODING 3
SWIDTH 666 0
DWIDTH 8 0
BBX 8 13 0 -3
BITMAP
0000
0000
0000
0000
3800
4400
4000
4000
4400
3800
1000
3000
0000
ENDCHAR
STARTCHAR C004
ENCODING 4
SWIDTH 666 0
DWIDTH 8 0
BBX 8 13 0 -3
BITMAP
0000
1200
1200
0000
0000
0000
0000
0000
0000
0000
0000
0000
0000
ENDCHAR
STARTCHAR C005
ENCODING 5
SWIDTH 666 0
DWIDTH 8 0
BBX 8 13 0 -3
BITMAP
0000
0400
0200
0000
0000
0000
0000
0000
0000
0000
0000
0000
0000
ENDCHAR
STARTCHAR C006
ENCODING 6
SWIDTH 666 0
DWIDTH 8 0
BBX 8 13 0 -3
BITMAP
0000
0000
3b00
4480
fe00
4400
4400
4400
4400
fe00
0000
0000
0000
ENDCHAR
STARTCHAR C007
ENCODING 7
SWIDTH 666 0
DWIDTH 8 0
BBX 8 13 0 -3
BITMAP
0000
0000
0800
1000
1800
0000
0000
0000
0000
0000
0000
0000
0000
ENDCHAR
STARTCHAR C010
ENCODING 8
SWIDTH 666 0
DWIDTH 8 0
BBX 8 13 0 -3
BITMAP
0000
0000
1000
1000
0000
1000
1000
1000
1000
1000
0000
0000
0000
ENDCHAR
STARTCHAR C011
ENCODING 9
SWIDTH 666 0
DWIDTH 8 0
BBX 8 13 0 -3
BITMAP
0000
0000
0000
0000
0000
0000
0000
0000
0000
0000
0000
0000
0000
ENDCHAR
STARTCHAR C012
ENCODING 10
SWIDTH 666 0
DWIDTH 8 0
BBX 8 13 0 -3
BITMAP
0000
0000
0000
0000
0000
0000
0000
0000
0000
0000
0000
0000
0000
ENDCHAR
STARTCHAR C013
ENCODING 11
SWIDTH 666 0
DWIDTH 8 0
BBX 8 13 0 -3
BITMAP
0000
0200
0400
0000
0000
0000
0000
0000
0000
0000
0000
0000
0000
ENDCHAR
STARTCHAR C014
ENCODING 12
SWIDTH 666 0
DWIDTH 8 0
BBX 8 13 0 -3
BITMAP
0000
0000
0000
0000
0000
0000
0000
0000
0000
0000
0000
0000
0000
ENDCHAR
STARTCHAR C015
ENCODING 13
SWIDTH 666 0
DWIDTH 8 0
BBX 8 13 0 -3
BITMAP
0000
0000
0000
0000
0000
0000
0000
0000
0000
0000
0000
0000
0000
ENDCHAR
STARTCHAR C016
ENCODING 14
SWIDTH 666 0
DWIDTH 8 0
BBX 8 13 0 -3
BITMAP
0000
0000
1e00
0000
0000
0000
0000
0000
0000
0000
0000
0000
0000
ENDCHAR
STARTCHAR C017
ENCODING 15
SWIDTH 666 0
DWIDTH 8 0
BBX 8 13 0 -3
BITMAP
0000
0000
0000
0000
0000
0000
0000
0000
0000
0000
0000
0000
0000
ENDCHAR
STARTCHAR C020
ENCODING 16
SWIDTH 666 0
DWIDTH 8 0
BBX 8 13 0 -3
BITMAP
0000
1a00
2c00
0000
0000
0000
0000
0000
0000
0000
0000
0000
0000
ENDCHAR
STARTCHAR C021
ENCODING 17
SWIDTH 666 0
DWIDTH 8 0
BBX 8 13 0 -3
BITMAP
0000
0000
7e00
9200
fe00
9200
9200
9200
9200
ff00
0000
0000
0000
ENDCHAR
STARTCHAR C022
ENCODING 18
SWIDTH 666 0
DWIDTH 8 0
BBX 8 13 0 -3
BITMAP
0000
0000
7e00
9200
fe00
9200
9200
9200
9200
ff00
0000
0000
0000
ENDCHAR
STARTCHAR C023
ENCODING 19
SWIDTH 666 0
DWIDTH 8 0
BBX 8 13 0 -3
BITMAP
0000
0000
0000
0000
0000
0000
ff80
0000
0000
0000
0000
0000
0000
ENDCHAR
STARTCHAR C024
ENCODING 20
SWIDTH 666 0
DWIDTH 8 0
BBX 8 13 0 -3
BITMAP
0000
0000
1c00
2200
7c00
2200
2200
2200
2200
7f00
0000
0000
0000
ENDCHAR
STARTCHAR C025
ENCODING 21
SWIDTH 666 0
DWIDTH 8 0
BBX 8 13 0 -3
BITMAP
0000
0000
3c00
4400
fc00
4400
4400
4400
4400
fe00
0000
0000
0000
ENDCHAR
STARTCHAR C026
ENCODING 22
SWIDTH 666 0
DWIDTH 8 0
BBX 8 13 0 -3
BITMAP
0000
0000
0000
0000
0000
0000
7e00
0000
0000
0000
0000
0000
0000
ENDCHAR
STARTCHAR C027
ENCODING 23
SWIDTH 666 0
DWIDTH 8 0
BBX 8 13 0 -3
BITMAP
0000
2200
1c00
0000
0000
0000
0000
0000
0000
0000
0000
0000
0000
ENDCHAR
STARTCHAR C030
ENCODING 24
SWIDTH 666 0
DWIDTH 8 0
BBX 8 13 0 -3
BITMAP
0000
0000
0000
0000
0000
0000
7e00
0000
0000
0000
0000
0000
0000
ENDCHAR
STARTCHAR C031
ENCODING 25
SWIDTH 666 0
DWIDTH 8 0
BBX 8 13 0 -3
BITMAP
0000
0000
0000
0000
0000
0000
0000
0000
0000
0000
0000
0000
0000
ENDCHAR
STARTCHAR C032
ENCODING 26
SWIDTH 666 0
DWIDTH 8 0
BBX 8 13 0 -3
BITMAP
0000
0000
0000
0000
0000
0000
0000
0000
0000
0000
0000
0000
0000
ENDCHAR
STARTCHAR C033
ENCODING 27
SWIDTH 666 0
DWIDTH 8 0
BBX 8 13 0 -3
BITMAP
0000
0000
0000
0000
0000
0000
0000
0000
0000
0000
0000
0000
0000
ENDCHAR
STARTCHAR C034
ENCODING 28
SWIDTH 666 0
DWIDTH 8 0
BBX 8 13 0 -3
BITMAP
0000
0000
0000
0000
0000
0000
0000
0000
0000
0000
0000
0000
0000
ENDCHAR
STARTCHAR C035
ENCODING 29
SWIDTH 666 0
DWIDTH 8 0
BBX 8 13 0 -3
BITMAP
0000
0000
0000
0000
0000
0000
0000
0000
0000
0000
0000
0400
0400
ENDCHAR
STARTCHAR C036
ENCODING 30
SWIDTH 666 0
DWIDTH 8 0
BBX 8 13 0 -3
BITMAP
0000
1a00
2c00
0000
0000
0000
0000
0000
0000
0000
0000
0000
0000
ENDCHAR
STARTCHAR C037
ENCODING 31
SWIDTH 666 0
DWIDTH 8 0
BBX 8 13 0 -3
BITMAP
0c00
1200
1200
0c00
0000
0000
0000
0000
0000
0000
0000
0000
0000
ENDCHAR
STARTCHAR C040
ENCODING 32
SWIDTH 666 0
DWIDTH 8 0
BBX 8 13 0 -3
BITMAP
0000
0000
0000
0000
0000
0000
0000
0000
0000
0000
0000
0000
0000
ENDCHAR
STARTCHAR !
ENCODING 33
SWIDTH 666 0
DWIDTH 8 0
BBX 8 13 0 -3
BITMAP
0000
0000
0800
0800
0800
0800
0800
0000
0800
0800
0000
0000
0000
ENDCHAR
STARTCHAR "
ENCODING 34
SWIDTH 666 0
DWIDTH 8 0
BBX 8 13 0 -3
BITMAP
0000
0000
1400
1400
1400
0000
0000
0000
0000
0000
0000
0000
0000
ENDCHAR
STARTCHAR #
ENCODING 35
SWIDTH 666 0
DWIDTH 8 0
BBX 8 13 0 -3
BITMAP
0000
0000
1200
1200
7f00
2400
2400
fe00
4800
4800
0000
0000
0000
ENDCHAR
STARTCHAR $
ENCODING 36
SWIDTH 666 0
DWIDTH 8 0
BBX 8 13 0 -3
BITMAP
0000
0800
1e00
2a00
2800
1c00
0a00
0a00
2a00
3c00
0800
0000
0000
ENDCHAR
STARTCHAR %
ENCODING 37
SWIDTH 666 0
DWIDTH 8 0
BBX 8 13 0 -3
BITMAP
0000
0000
7c00
9400
9800
6800
1200
1500
1500
1200
0000
0000
0000
ENDCHAR
STARTCHAR &
ENCODING 38
SWIDTH 666 0
DWIDTH 8 0
BBX 8 13 0 -3
BITMAP
0000
0000
1000
2800
2800
3200
5400
8c00
8900
7600
0000
0000
0000
ENDCHAR
STARTCHAR '
ENCODING 39
SWIDTH 666 0
DWIDTH 8 0
BBX 8 13 0 -3
BITMAP
0000
0000
1800
0800
1000
0000
0000
0000
0000
0000
0000
0000
0000
ENDCHAR
STARTCHAR (
ENCODING 40
SWIDTH 666 0
DWIDTH 8 0
BBX 8 13 0 -3
BITMAP
0000
0000
0400
0800
0800
1000
1000
1000
1000
1000
0800
0800
0400
ENDCHAR
STARTCHAR )
ENCODING 41
SWIDTH 666 0
DWIDTH 8 0
BBX 8 13 0 -3
BITMAP
0000
0000
1000
0800
0800
0400
0400
0400
0400
0400
0800
0800
1000
ENDCHAR
STARTCHAR *
ENCODING 42
SWIDTH 666 0
DWIDTH 8 0
BBX 8 13 0 -3
BITMAP
0000
0800
2a00
1c00
2a00
0800
0000
0000
0000
0000
0000
0000
0000
ENDCHAR
STARTCHAR +
ENCODING 43
SWIDTH 666 0
DWIDTH 8 0
BBX 8 13 0 -3
BITMAP
0000
0000
0000
0000
0000
0800
0800
3e00
0800
0800
0000
0000
0000
ENDCHAR
STARTCHAR ,
ENCODING 44
SWIDTH 666 0
DWIDTH 8 0
BBX 8 13 0 -3
BITMAP
0000
0000
0000
0000
0000
0000
0000
0000
1800
0800
0800
1000
0000
ENDCHAR
STARTCHAR -
ENCODING 45
SWIDTH 666 0
DWIDTH 8 0
BBX 8 13 0 -3
BITMAP
0000
0000
0000
0000
0000
0000
3c00
0000
0000
0000
0000
0000
0000
ENDCHAR
STARTCHAR .
ENCODING 46
SWIDTH 666 0
DWIDTH 8 0
BBX 8 13 0 -3
BITMAP
0000
0000
0000
0000
0000
0000
0000
0000
0800
0800
0000
0000
0000
ENDCHAR
STARTCHAR /
ENCODING 47
SWIDTH 666 0
DWIDTH 8 0
BBX 8 13 0 -3
BITMAP
0000
0000
0400
0400
0800
0800
1000
1000
2000
2000
0000
0000
0000
ENDCHAR
STARTCHAR 0
ENCODING 48
SWIDTH 666 0
DWIDTH 8 0
BBX 8 13 0 -3
BITMAP
0000
0000
1800
2400
2400
2400
2400
2400
2400
1800
0000
0000
0000
ENDCHAR
STARTCHAR 1
ENCODING 49
SWIDTH 666 0
DWIDTH 8 0
BBX 8 13 0 -3
BITMAP
0000
0000
0800
1800
0800
0800
0800
0800
0800
1c00
0000
0000
0000
ENDCHAR
STARTCHAR 2
ENCODING 50
SWIDTH 666 0
DWIDTH 8 0
BBX 8 13 0 -3
BITMAP
0000
0000
1800
2400
0400
0400
0800
1000
2200
3c00
0000
0000
0000
ENDCHAR
STARTCHAR 3
ENCODING 51
SWIDTH 666 0
DWIDTH 8 0
BBX 8 13 0 -3
BITMAP
0000
0000
1800
2400
0400
1800
0400
0400
2400
1800
0000
0000
0000
ENDCHAR
STARTCHAR 4
ENCODING 52
SWIDTH 666 0
DWIDTH 8 0
BBX 8 13 0 -3
BITMAP
0000
0000
0c00
1400
1400
2400
2400
3e00
0400
0400
0000
0000
0000
ENDCHAR
STARTCHAR 5
ENCODING 53
SWIDTH 666 0
DWIDTH 8 0
BBX 8 13 0 -3
BITMAP
0000
0000
0c00
1000
1000
0800
0400
0400
2400
1800
0000
0000
0000
ENDCHAR
STARTCHAR 6
ENCODING 54
SWIDTH 666 0
DWIDTH 8 0
BBX 8 13 0 -3
BITMAP
0000
0000
0c00
1000
2000
3800
2400
2400
2400
1800
0000
0000
0000
ENDCHAR
STARTCHAR 7
ENCODING 55
SWIDTH 666 0
DWIDTH 8 0
BBX 8 13 0 -3
BITMAP
0000
0000
1c00
2400
0400
0800
0800
1000
1000
1000
0000
0000
0000
ENDCHAR
STARTCHAR 8
ENCODING 56
SWIDTH 666 0
DWIDTH 8 0
BBX 8 13 0 -3
BITMAP
0000
0000
1800
2400
2400
1800
2400
2400
2400
1800
0000
0000
0000
ENDCHAR
STARTCHAR 9
ENCODING 57
SWIDTH 666 0
DWIDTH 8 0
BBX 8 13 0 -3
BITMAP
0000
0000
1800
2400
2400
2400
1c00
0400
0800
3000
0000
0000
0000
ENDCHAR
STARTCHAR :
ENCODING 58
SWIDTH 666 0
DWIDTH 8 0
BBX 8 13 0 -3
BITMAP
0000
0000
0000
0000
0800
0800
0000
0000
0800
0800
0000
0000
0000
ENDCHAR
STARTCHAR ;
ENCODING 59
SWIDTH 666 0
DWIDTH 8 0
BBX 8 13 0 -3
BITMAP
0000
0000
0000
0000
0800
0800
0000
0000
1800
0800
0800
1000
0000
ENDCHAR
STARTCHAR <
ENCODING 60
SWIDTH 666 0
DWIDTH 8 0
BBX 8 13 0 -3
BITMAP
0000
0000
0400
0800
1000
2000
2000
1000
0800
0400
0000
0000
0000
ENDCHAR
STARTCHAR =
ENCODING 61
SWIDTH 666 0
DWIDTH 8 0
BBX 8 13 0 -3
BITMAP
0000
0000
0000
0000
0000
0000
3c00
0000
3c00
0000
0000
0000
0000
ENDCHAR
STARTCHAR >
ENCODING 62
SWIDTH 666 0
DWIDTH 8 0
BBX 8 13 0 -3
BITMAP
0000
0000
2000
1000
0800
0400
0400
0800
1000
2000
0000
0000
0000
ENDCHAR
STARTCHAR ?
ENCODING 63
SWIDTH 666 0
DWIDTH 8 0
BBX 8 13 0 -3
BITMAP
0000
0000
1800
2400
0400
0800
1000
0000
1000
1000
0000
0000
0000
ENDCHAR
STARTCHAR @
ENCODING 64
SWIDTH 666 0
DWIDTH 8 0
BBX 8 13 0 -3
BITMAP
0000
0000
1e00
6200
5d00
9500
9500
9600
5a00
6100
1e00
0000
0000
ENDCHAR
STARTCHAR A
ENCODING 65
SWIDTH 666 0
DWIDTH 8 0
BBX 8 13 0 -3
BITMAP
0000
0000
1000
1000
2800
2800
4400
7c00
8200
c700
0000
0000
0000
ENDCHAR
STARTCHAR B
ENCODING 66
SWIDTH 666 0
DWIDTH 8 0
BBX 8 13 0 -3
BITMAP
0000
0000
fc00
4200
4200
7c00
4200
4200
4200
fc00
0000
0000
0000
ENDCHAR
STARTCHAR C
ENCODING 67
SWIDTH 666 0
DWIDTH 8 0
BBX 8 13 0 -3
BITMAP
0000
0000
3a00
4600
8200
8000
8000
8000
4200
3c00
0000
0000
0000
ENDCHAR
STARTCHAR D
ENCODING 68
SWIDTH 666 0
DWIDTH 8 0
BBX 8 13 0 -3
BITMAP
0000
0000
fc00
4200
4100
4100
4100
4100
4200
fc00
0000
0000
0000
ENDCHAR
STARTCHAR E
ENCODING 69
SWIDTH 666 0
DWIDTH 8 0
BBX 8 13 0 -3
BITMAP
0000
0000
fc00
4200
4800
7800
4800
4000
4200
fc00
0000
0000
0000
ENDCHAR
STARTCHAR F
ENCODING 70
SWIDTH 666 0
DWIDTH 8 0
BBX 8 13 0 -3
BITMAP
0000
0000
fc00
4200
4800
7800
4800
4000
4000
f000
0000
0000
0000
ENDCHAR
STARTCHAR G
ENCODING 71
SWIDTH 666 0
DWIDTH 8 0
BBX 8 13 0 -3
BITMAP
0000
0000
3a00
4600
8000
8000
8700
8200
4200
3c00
0000
0000
0000
ENDCHAR
STARTCHAR H
ENCODING 72
SWIDTH 666 0
DWIDTH 8 0
BBX 8 13 0 -3
BITMAP
0000
0000
e700
4200
4200
7e00
4200
4200
4200
e700
0000
0000
0000
ENDCHAR
STARTCHAR I
ENCODING 73
SWIDTH 666 0
DWIDTH 8 0
BBX 8 13 0 -3
BITMAP
0000
0000
3800
1000
1000
1000
1000
1000
1000
3800
0000
0000
0000
ENDCHAR
STARTCHAR J
ENCODING 74
SWIDTH 666 0
DWIDTH 8 0
BBX 8 13 0 -3
BITMAP
0000
0000
1c00
0800
0800
0800
0800
0800
2800
3000
0000
0000
0000
ENDCHAR
STARTCHAR K
ENCODING 75
SWIDTH 666 0
DWIDTH 8 0
BBX 8 13 0 -3
BITMAP
0000
0000
e600
4400
4800
7000
5800
4c00
4600
e300
0000
0000
0000
ENDCHAR
STARTCHAR L
ENCODING 76
SWIDTH 666 0
DWIDTH 8 0
BBX 8 13 0 -3
BITMAP
0000
0000
e000
4000
4000
4000
4000
4000
4200
fc00
0000
0000
0000
ENDCHAR
STARTCHAR M
ENCODING 77
SWIDTH 666 0
DWIDTH 8 0
BBX 8 13 0 -3
BITMAP
0000
0000
c300
c200
a600
a600
9a00
9a00
9200
d300
0000
0000
0000
ENDCHAR
STARTCHAR N
ENCODING 78
SWIDTH 666 0
DWIDTH 8 0
BBX 8 13 0 -3
BITMAP
0000
0000
e700
6200
5200
5200
4a00
4a00
4600
e600
0000
0000
0000
ENDCHAR
STARTCHAR O
ENCODING 79
SWIDTH 666 0
DWIDTH 8 0
BBX 8 13 0 -3
BITMAP
0000
0000
3c00
4200
8100
8100
8100
8100
4200
3c00
0000
0000
0000
ENDCHAR
STARTCHAR P
ENCODING 80
SWIDTH 666 0
DWIDTH 8 0
BBX 8 13 0 -3
BITMAP
0000
0000
7c00
2200
2200
2200
3c00
2000
2000
7000
0000
0000
0000
ENDCHAR
STARTCHAR Q
ENCODING 81
SWIDTH 666 0
DWIDTH 8 0
BBX 8 13 0 -3
BITMAP
0000
0000
3c00
4200
8100
8100
8100
8100
4200
3c00
0800
0600
0000
ENDCHAR
STARTCHAR R
ENCODING 82
SWIDTH 666 0
DWIDTH 8 0
BBX 8 13 0 -3
BITMAP
0000
0000
f800
4400
4400
7800
5000
4800
4400
e600
0000
0000
0000
ENDCHAR
STARTCHAR S
ENCODING 83
SWIDTH 666 0
DWIDTH 8 0
BBX 8 13 0 -3
BITMAP
0000
0000
3400
4c00
4000
3000
0800
4400
6400
5800
0000
0000
0000
ENDCHAR
STARTCHAR T
ENCODING 84
SWIDTH 666 0
DWIDTH 8 0
BBX 8 13 0 -3
BITMAP
0000
0000
fe00
9200
1000
1000
1000
1000
1000
3800
0000
0000
0000
ENDCHAR
STARTCHAR U
ENCODING 85
SWIDTH 666 0
DWIDTH 8 0
BBX 8 13 0 -3
BITMAP
0000
0000
e700
4200
4200
4200
4200
4200
4200
3c00
0000
0000
0000
ENDCHAR
STARTCHAR V
ENCODING 86
SWIDTH 666 0
DWIDTH 8 0
BBX 8 13 0 -3
BITMAP
0000
0000
c700
8200
8200
4400
4400
2800
2800
1000
0000
0000
0000
ENDCHAR
STARTCHAR W
ENCODING 87
SWIDTH 666 0
DWIDTH 8 0
BBX 8 13 0 -3
BITMAP
0000
0000
db00
9200
9200
5a00
5a00
5a00
2400
2400
0000
0000
0000
ENDCHAR
STARTCHAR X
ENCODING 88
SWIDTH 666 0
DWIDTH 8 0
BBX 8 13 0 -3
BITMAP
0000
0000
ee00
4400
2800
1000
1000
2800
4400
ee00
0000
0000
0000
ENDCHAR
STARTCHAR Y
ENCODING 89
SWIDTH 666 0
DWIDTH 8 0
BBX 8 13 0 -3
BITMAP
0000
0000
ee00
4400
2800
2800
1000
1000
1000
3800
0000
0000
0000
ENDCHAR
STARTCHAR Z
ENCODING 90
SWIDTH 666 0
DWIDTH 8 0
BBX 8 13 0 -3
BITMAP
0000
0000
3e00
4200
0400
0800
1000
2000
4200
7c00
0000
0000
0000
ENDCHAR
STARTCHAR [
ENCODING 91
SWIDTH 666 0
DWIDTH 8 0
BBX 8 13 0 -3
BITMAP
0000
0000
1c00
1000
1000
1000
1000
1000
1000
1000
1000
1000
1c00
ENDCHAR
STARTCHAR \
ENCODING 92
SWIDTH 666 0
DWIDTH 8 0
BBX 8 13 0 -3
BITMAP
0000
0000
2000
2000
1000
1000
0800
0800
0400
0400
0000
0000
0000
ENDCHAR
STARTCHAR ]
ENCODING 93
SWIDTH 666 0
DWIDTH 8 0
BBX 8 13 0 -3
BITMAP
0000
0000
1c00
0400
0400
0400
0400
0400
0400
0400
0400
0400
1c00
ENDCHAR
STARTCHAR ^
ENCODING 94
SWIDTH 666 0
DWIDTH 8 0
BBX 8 13 0 -3
BITMAP
0000
0000
0000
0000
0800
1c00
2a00
0800
0800
0800
0000
0000
0000
ENDCHAR
STARTCHAR _
ENCODING 95
SWIDTH 666 0
DWIDTH 8 0
BBX 8 13 0 -3
BITMAP
0000
0000
0000
0000
1000
2000
7e00
2000
1000
0000
0000
0000
0000
ENDCHAR
STARTCHAR `
ENCODING 96
SWIDTH 666 0
DWIDTH 8 0
BBX 8 13 0 -3
BITMAP
0000
0000
0800
1000
1800
0000
0000
0000
0000
0000
0000
0000
0000
ENDCHAR
STARTCHAR a
ENCODING 97
SWIDTH 666 0
DWIDTH 8 0
BBX 8 13 0 -3
BITMAP
0000
0000
0000
0000
3800
0400
3c00
4400
4400
3a00
0000
0000
0000
ENDCHAR
STARTCHAR b
ENCODING 98
SWIDTH 666 0
DWIDTH 8 0
BBX 8 13 0 -3
BITMAP
0000
0000
6000
2000
2c00
3200
2200
2200
2200
1c00
0000
0000
0000
ENDCHAR
STARTCHAR c
ENCODING 99
SWIDTH 666 0
DWIDTH 8 0
BBX 8 13 0 -3
BITMAP
0000
0000
0000
0000
3800
4400
4000
4000
4400
3800
0000
0000
0000
ENDCHAR
STARTCHAR d
ENCODING 100
SWIDTH 666 0
DWIDTH 8 0
BBX 8 13 0 -3
BITMAP
0000
0000
0c00
0400
3400
4c00
4400
4400
4400
3a00
0000
0000
0000
ENDCHAR
STARTCHAR e
ENCODING 101
SWIDTH 666 0
DWIDTH 8 0
BBX 8 13 0 -3
BITMAP
0000
0000
0000
0000
3800
4400
7c00
4000
4400
3800
0000
0000
0000
ENDCHAR
STARTCHAR f
ENCODING 102
SWIDTH 666 0
DWIDTH 8 0
BBX 8 13 0 -3
BITMAP
0000
0000
0c00
1200
3800
1000
1000
1000
1000
3800
0000
0000
0000
ENDCHAR
STARTCHAR g
ENCODING 103
SWIDTH 666 0
DWIDTH 8 0
BBX 8 13 0 -3
BITMAP
0000
0000
0000
0000
1a00
2400
2400
1800
2000
1c00
2200
3c00
0000
ENDCHAR
STARTCHAR h
ENCODING 104
SWIDTH 666 0
DWIDTH 8 0
BBX 8 13 0 -3
BITMAP
0000
0000
c000
4000
5800
6400
4400
4400
4400
ee00
0000
0000
0000
ENDCHAR
STARTCHAR i
ENCODING 105
SWIDTH 666 0
DWIDTH 8 0
BBX 8 13 0 -3
BITMAP
0000
0000
1000
0000
3000
1000
1000
1000
1000
3800
0000
0000
0000
ENDCHAR
STARTCHAR j
ENCODING 106
SWIDTH 666 0
DWIDTH 8 0
BBX 8 13 0 -3
BITMAP
0000
0000
0800
0000
1800
0800
0800
0800
0800
0800
2800
3000
0000
ENDCHAR
STARTCHAR k
ENCODING 107
SWIDTH 666 0
DWIDTH 8 0
BBX 8 13 0 -3
BITMAP
0000
0000
6000
2000
2600
2800
3000
2800
2400
7600
0000
0000
0000
ENDCHAR
STARTCHAR l
ENCODING 108
SWIDTH 666 0
DWIDTH 8 0
BBX 8 13 0 -3
BITMAP
0000
0000
3000
1000
1000
1000
1000
1000
1000
3800
0000
0000
0000
ENDCHAR
STARTCHAR m
ENCODING 109
SWIDTH 666 0
DWIDTH 8 0
BBX 8 13 0 -3
BITMAP
0000
0000
0000
0000
ec00
9200
9200
9200
9200
bb00
0000
0000
0000
ENDCHAR
STARTCHAR n
ENCODING 110
SWIDTH 666 0
DWIDTH 8 0
BBX 8 13 0 -3
BITMAP
0000
0000
0000
0000
d800
6400
4400
4400
4400
ee00
0000
0000
0000
ENDCHAR
STARTCHAR o
ENCODING 111
SWIDTH 666 0
DWIDTH 8 0
BBX 8 13 0 -3
BITMAP
0000
0000
0000
0000
3800
4400
4400
4400
4400
3800
0000
0000
0000
ENDCHAR
STARTCHAR p
ENCODING 112
SWIDTH 666 0
DWIDTH 8 0
BBX 8 13 0 -3
BITMAP
0000
0000
0000
0000
6c00
3200
2200
2200
3200
2c00
2000
7000
0000
ENDCHAR
STARTCHAR q
ENCODING 113
SWIDTH 666 0
DWIDTH 8 0
BBX 8 13 0 -3
BITMAP
0000
0000
0000
0000
3400
4c00
4400
4400
4c00
3400
0400
0e00
0000
ENDCHAR
STARTCHAR r
ENCODING 114
SWIDTH 666 0
DWIDTH 8 0
BBX 8 13 0 -3
BITMAP
0000
0000
0000
0000
3c00
1400
1000
1000
1000
3800
0000
0000
0000
ENDCHAR
STARTCHAR s
ENCODING 115
SWIDTH 666 0
DWIDTH 8 0
BBX 8 13 0 -3
BITMAP
0000
0000
0000
0000
1c00
2000
1800
0400
2400
3800
0000
0000
0000
ENDCHAR
STARTCHAR t
ENCODING 116
SWIDTH 666 0
DWIDTH 8 0
BBX 8 13 0 -3
BITMAP
0000
0000
0000
1000
3800
1000
1000
1000
1400
0800
0000
0000
0000
ENDCHAR
STARTCHAR u
ENCODING 117
SWIDTH 666 0
DWIDTH 8 0
BBX 8 13 0 -3
BITMAP
0000
0000
0000
0000
cc00
4400
4400
4400
4400
3a00
0000
0000
0000
ENDCHAR
STARTCHAR v
ENCODING 118
SWIDTH 666 0
DWIDTH 8 0
BBX 8 13 0 -3
BITMAP
0000
0000
0000
0000
ee00
4400
4400
2800
2800
1000
0000
0000
0000
ENDCHAR
STARTCHAR w
ENCODING 119
SWIDTH 666 0
DWIDTH 8 0
BBX 8 13 0 -3
BITMAP
0000
0000
0000
0000
d700
9200
9200
5400
6c00
4400
0000
0000
0000
ENDCHAR
STARTCHAR x
ENCODING 120
SWIDTH 666 0
DWIDTH 8 0
BBX 8 13 0 -3
BITMAP
0000
0000
0000
0000
6c00
2800
1000
1000
2800
6c00
0000
0000
0000
ENDCHAR
STARTCHAR y
ENCODING 121
SWIDTH 666 0
DWIDTH 8 0
BBX 8 13 0 -3
BITMAP
0000
0000
0000
0000
ee00
4400
2800
2800
1000
1000
a000
6000
0000
ENDCHAR
STARTCHAR z
ENCODING 122
SWIDTH 666 0
DWIDTH 8 0
BBX 8 13 0 -3
BITMAP
0000
0000
0000
0000
3e00
4400
0800
1000
2200
7c00
0000
0000
0000
ENDCHAR
STARTCHAR {
ENCODING 123
SWIDTH 666 0
DWIDTH 8 0
BBX 8 13 0 -3
BITMAP
0000
0000
0600
0800
0800
0800
0800
3000
0800
0800
0800
0800
0600
ENDCHAR
STARTCHAR |
ENCODING 124
SWIDTH 666 0
DWIDTH 8 0
BBX 8 13 0 -3
BITMAP
0000
0000
0800
0800
0800
0800
0800
0800
0800
0800
0800
0800
0000
ENDCHAR
STARTCHAR }
ENCODING 125
SWIDTH 666 0
DWIDTH 8 0
BBX 8 13 0 -3
BITMAP
0000
0000
3000
0800
0800
0800
0800
0600
0800
0800
0800
0800
3000
ENDCHAR
STARTCHAR ~
ENCODING 126
SWIDTH 666 0
DWIDTH 8 0
BBX 8 13 0 -3
BITMAP
0000
0000
0000
0000
0000
3200
4c00
0000
0000
0000
0000
0000
0000
ENDCHAR
ENDFONT
